<?xml version="1.0" encoding="UTF-8" standalone="no"?>
<!DOCTYPE svg PUBLIC "-//W3C//DTD SVG 1.1//EN"
 "http://www.w3.org/Graphics/SVG/1.1/DTD/svg11.dtd">
<!-- Generated by graphviz version 12.1.1 (20240910.0053)
 -->
<!-- Pages: 1 -->
<svg width="422pt" height="260pt"
 viewBox="0.00 0.00 422.00 260.00" xmlns="http://www.w3.org/2000/svg" xmlns:xlink="http://www.w3.org/1999/xlink">
<g id="graph0" class="graph" transform="scale(1 1) rotate(0) translate(4 256)">
<polygon fill="white" stroke="none" points="-4,4 -4,-256 418,-256 418,4 -4,4"/>
<!-- 1 -->
<g id="node1" class="node">
<title>1</title>
<ellipse fill="none" stroke="black" cx="63" cy="-234" rx="27" ry="18"/>
<text text-anchor="middle" x="63" y="-228.95" font-family="Times New Roman,serif" font-size="14.00">1</text>
</g>
<!-- a1 -->
<g id="node2" class="node">
<title>a1</title>
<ellipse fill="none" stroke="black" cx="27" cy="-162" rx="27" ry="18"/>
<text text-anchor="middle" x="27" y="-156.95" font-family="Times New Roman,serif" font-size="14.00">a1</text>
</g>
<!-- 1&#45;&#45;a1 -->
<g id="edge1" class="edge">
<title>1&#45;&#45;a1</title>
<path fill="none" stroke="black" d="M54.65,-216.76C48.83,-205.46 41.11,-190.44 35.3,-179.15"/>
</g>
<!-- e2 -->
<g id="node16" class="node">
<title>e2</title>
<ellipse fill="none" stroke="black" cx="99" cy="-162" rx="27" ry="18"/>
<text text-anchor="middle" x="99" y="-156.95" font-family="Times New Roman,serif" font-size="14.00">e2</text>
</g>
<!-- 1&#45;&#45;e2 -->
<g id="edge11" class="edge">
<title>1&#45;&#45;e2</title>
<path fill="none" stroke="black" d="M71.35,-216.76C77.17,-205.46 84.89,-190.44 90.7,-179.15"/>
</g>
<!-- c1 -->
<g id="node7" class="node">
<title>c1</title>
<ellipse fill="none" stroke="black" cx="27" cy="-90" rx="27" ry="18"/>
<text text-anchor="middle" x="27" y="-84.95" font-family="Times New Roman,serif" font-size="14.00">c1</text>
</g>
<!-- a1&#45;&#45;c1 -->
<g id="edge4" class="edge">
<title>a1&#45;&#45;c1</title>
<path fill="none" stroke="black" d="M27,-143.7C27,-132.85 27,-118.92 27,-108.1"/>
</g>
<!-- b1 -->
<g id="node3" class="node">
<title>b1</title>
<ellipse fill="none" stroke="black" cx="171" cy="-162" rx="27" ry="18"/>
<text text-anchor="middle" x="171" y="-156.95" font-family="Times New Roman,serif" font-size="14.00">b1</text>
</g>
<!-- a2 -->
<g id="node4" class="node">
<title>a2</title>
<ellipse fill="none" stroke="black" cx="171" cy="-90" rx="27" ry="18"/>
<text text-anchor="middle" x="171" y="-84.95" font-family="Times New Roman,serif" font-size="14.00">a2</text>
</g>
<!-- b1&#45;&#45;a2 -->
<g id="edge2" class="edge">
<title>b1&#45;&#45;a2</title>
<path fill="none" stroke="black" d="M171,-143.7C171,-132.85 171,-118.92 171,-108.1"/>
</g>
<!-- c2 -->
<g id="node8" class="node">
<title>c2</title>
<ellipse fill="none" stroke="black" cx="171" cy="-18" rx="27" ry="18"/>
<text text-anchor="middle" x="171" y="-12.95" font-family="Times New Roman,serif" font-size="14.00">c2</text>
</g>
<!-- a2&#45;&#45;c2 -->
<g id="edge5" class="edge">
<title>a2&#45;&#45;c2</title>
<path fill="none" stroke="black" d="M171,-71.7C171,-60.85 171,-46.92 171,-36.1"/>
</g>
<!-- b2 -->
<g id="node5" class="node">
<title>b2</title>
<ellipse fill="none" stroke="black" cx="243" cy="-162" rx="27" ry="18"/>
<text text-anchor="middle" x="243" y="-156.95" font-family="Times New Roman,serif" font-size="14.00">b2</text>
</g>
<!-- a3 -->
<g id="node6" class="node">
<title>a3</title>
<ellipse fill="none" stroke="black" cx="243" cy="-90" rx="27" ry="18"/>
<text text-anchor="middle" x="243" y="-84.95" font-family="Times New Roman,serif" font-size="14.00">a3</text>
</g>
<!-- b2&#45;&#45;a3 -->
<g id="edge3" class="edge">
<title>b2&#45;&#45;a3</title>
<path fill="none" stroke="black" d="M243,-143.7C243,-132.85 243,-118.92 243,-108.1"/>
</g>
<!-- c3 -->
<g id="node9" class="node">
<title>c3</title>
<ellipse fill="none" stroke="black" cx="243" cy="-18" rx="27" ry="18"/>
<text text-anchor="middle" x="243" y="-12.95" font-family="Times New Roman,serif" font-size="14.00">c3</text>
</g>
<!-- a3&#45;&#45;c3 -->
<g id="edge6" class="edge">
<title>a3&#45;&#45;c3</title>
<path fill="none" stroke="black" d="M243,-71.7C243,-60.85 243,-46.92 243,-36.1"/>
</g>
<!-- d1 -->
<g id="node10" class="node">
<title>d1</title>
<ellipse fill="none" stroke="black" cx="315" cy="-234" rx="27" ry="18"/>
<text text-anchor="middle" x="315" y="-228.95" font-family="Times New Roman,serif" font-size="14.00">d1</text>
</g>
<!-- c4 -->
<g id="node11" class="node">
<title>c4</title>
<ellipse fill="none" stroke="black" cx="315" cy="-162" rx="27" ry="18"/>
<text text-anchor="middle" x="315" y="-156.95" font-family="Times New Roman,serif" font-size="14.00">c4</text>
</g>
<!-- d1&#45;&#45;c4 -->
<g id="edge7" class="edge">
<title>d1&#45;&#45;c4</title>
<path fill="none" stroke="black" d="M315,-215.7C315,-204.85 315,-190.92 315,-180.1"/>
</g>
<!-- d2 -->
<g id="node12" class="node">
<title>d2</title>
<ellipse fill="none" stroke="black" cx="171" cy="-234" rx="27" ry="18"/>
<text text-anchor="middle" x="171" y="-228.95" font-family="Times New Roman,serif" font-size="14.00">d2</text>
</g>
<!-- d2&#45;&#45;b1 -->
<g id="edge8" class="edge">
<title>d2&#45;&#45;b1</title>
<path fill="none" stroke="black" d="M171,-215.7C171,-204.85 171,-190.92 171,-180.1"/>
</g>
<!-- d3 -->
<g id="node13" class="node">
<title>d3</title>
<ellipse fill="none" stroke="black" cx="243" cy="-234" rx="27" ry="18"/>
<text text-anchor="middle" x="243" y="-228.95" font-family="Times New Roman,serif" font-size="14.00">d3</text>
</g>
<!-- d3&#45;&#45;b2 -->
<g id="edge9" class="edge">
<title>d3&#45;&#45;b2</title>
<path fill="none" stroke="black" d="M243,-215.7C243,-204.85 243,-190.92 243,-180.1"/>
</g>
<!-- d4 -->
<g id="node14" class="node">
<title>d4</title>
<ellipse fill="none" stroke="black" cx="387" cy="-234" rx="27" ry="18"/>
<text text-anchor="middle" x="387" y="-228.95" font-family="Times New Roman,serif" font-size="14.00">d4</text>
</g>
<!-- e1 -->
<g id="node15" class="node">
<title>e1</title>
<ellipse fill="none" stroke="black" cx="387" cy="-162" rx="27" ry="18"/>
<text text-anchor="middle" x="387" y="-156.95" font-family="Times New Roman,serif" font-size="14.00">e1</text>
</g>
<!-- d4&#45;&#45;e1 -->
<g id="edge10" class="edge">
<title>d4&#45;&#45;e1</title>
<path fill="none" stroke="black" d="M387,-215.7C387,-204.85 387,-190.92 387,-180.1"/>
</g>
</g>
</svg>
