<?xml version="1.0" encoding="UTF-8" standalone="no"?>
<!DOCTYPE svg PUBLIC "-//W3C//DTD SVG 1.1//EN"
 "http://www.w3.org/Graphics/SVG/1.1/DTD/svg11.dtd">
<!-- Generated by graphviz version 12.1.1 (20240910.0053)
 -->
<!-- Pages: 1 -->
<svg width="182pt" height="476pt"
 viewBox="0.00 0.00 182.46 476.00" xmlns="http://www.w3.org/2000/svg" xmlns:xlink="http://www.w3.org/1999/xlink">
<g id="graph0" class="graph" transform="scale(1 1) rotate(0) translate(4 472)">
<polygon fill="white" stroke="none" points="-4,4 -4,-472 178.46,-472 178.46,4 -4,4"/>
<!-- 0 -->
<g id="node1" class="node">
<title>0</title>
<ellipse fill="none" stroke="black" cx="129.46" cy="-450" rx="27" ry="18"/>
<text text-anchor="middle" x="129.46" y="-444.95" font-family="Times New Roman,serif" font-size="14.00">0</text>
</g>
<!-- 0&#45;&gt;0 -->
<g id="edge1" class="edge">
<title>0&#45;&gt;0</title>
<path fill="none" stroke="black" d="M149.35,-462.43C162.14,-465.68 174.46,-461.53 174.46,-450 174.46,-441.98 168.5,-437.54 160.58,-436.66"/>
<polygon fill="black" stroke="black" points="160.55,-433.15 150.86,-437.45 161.11,-440.13 160.55,-433.15"/>
</g>
<!-- 1 -->
<g id="node2" class="node">
<title>1</title>
<ellipse fill="none" stroke="black" cx="65.46" cy="-378" rx="27" ry="18"/>
<text text-anchor="middle" x="65.46" y="-372.95" font-family="Times New Roman,serif" font-size="14.00">1</text>
</g>
<!-- 0&#45;&gt;1 -->
<g id="edge2" class="edge">
<title>0&#45;&gt;1</title>
<path fill="none" stroke="black" d="M115.88,-434.15C107.4,-424.87 96.29,-412.73 86.66,-402.19"/>
<polygon fill="black" stroke="black" points="89.36,-399.96 80.03,-394.94 84.2,-404.68 89.36,-399.96"/>
</g>
<!-- 3 -->
<g id="node3" class="node">
<title>3</title>
<ellipse fill="none" stroke="black" cx="93.46" cy="-306" rx="27" ry="18"/>
<text text-anchor="middle" x="93.46" y="-300.95" font-family="Times New Roman,serif" font-size="14.00">3</text>
</g>
<!-- 1&#45;&gt;3 -->
<g id="edge3" class="edge">
<title>1&#45;&gt;3</title>
<path fill="none" stroke="black" d="M72.09,-360.41C75.23,-352.57 79.06,-342.99 82.6,-334.13"/>
<polygon fill="black" stroke="black" points="85.84,-335.46 86.31,-324.88 79.34,-332.86 85.84,-335.46"/>
</g>
<!-- 4 -->
<g id="node4" class="node">
<title>4</title>
<ellipse fill="none" stroke="black" cx="55.46" cy="-90" rx="27" ry="18"/>
<text text-anchor="middle" x="55.46" y="-84.95" font-family="Times New Roman,serif" font-size="14.00">4</text>
</g>
<!-- 1&#45;&gt;4 -->
<g id="edge4" class="edge">
<title>1&#45;&gt;4</title>
<path fill="none" stroke="black" d="M62.25,-359.89C60.46,-349.54 58.41,-336.06 57.46,-324 51.63,-250.62 53.08,-163.84 54.4,-119.78"/>
<polygon fill="black" stroke="black" points="57.9,-119.9 54.72,-109.8 50.9,-119.68 57.9,-119.9"/>
</g>
<!-- 3&#45;&gt;3 -->
<g id="edge8" class="edge">
<title>3&#45;&gt;3</title>
<path fill="none" stroke="black" d="M113.35,-318.43C126.14,-321.68 138.46,-317.53 138.46,-306 138.46,-297.98 132.5,-293.54 124.58,-292.66"/>
<polygon fill="black" stroke="black" points="124.55,-289.15 114.86,-293.45 125.11,-296.13 124.55,-289.15"/>
</g>
<!-- 2 -->
<g id="node5" class="node">
<title>2</title>
<ellipse fill="none" stroke="black" cx="120.46" cy="-234" rx="27" ry="18"/>
<text text-anchor="middle" x="120.46" y="-228.95" font-family="Times New Roman,serif" font-size="14.00">2</text>
</g>
<!-- 3&#45;&gt;2 -->
<g id="edge7" class="edge">
<title>3&#45;&gt;2</title>
<path fill="none" stroke="black" d="M99.99,-288.05C102.98,-280.32 106.59,-270.96 109.94,-262.27"/>
<polygon fill="black" stroke="black" points="113.1,-263.79 113.44,-253.2 106.57,-261.27 113.1,-263.79"/>
</g>
<!-- 6 -->
<g id="node6" class="node">
<title>6</title>
<ellipse fill="none" stroke="black" cx="93.46" cy="-162" rx="27" ry="18"/>
<text text-anchor="middle" x="93.46" y="-156.95" font-family="Times New Roman,serif" font-size="14.00">6</text>
</g>
<!-- 4&#45;&gt;6 -->
<g id="edge10" class="edge">
<title>4&#45;&gt;6</title>
<path fill="none" stroke="black" d="M69.08,-105.74C74.47,-113.79 80.35,-124.02 85.13,-133.49"/>
<polygon fill="black" stroke="black" points="81.88,-134.8 89.33,-142.33 88.2,-131.79 81.88,-134.8"/>
</g>
<!-- 5 -->
<g id="node7" class="node">
<title>5</title>
<ellipse fill="none" stroke="black" cx="82.46" cy="-18" rx="27" ry="18"/>
<text text-anchor="middle" x="82.46" y="-12.95" font-family="Times New Roman,serif" font-size="14.00">5</text>
</g>
<!-- 4&#45;&gt;5 -->
<g id="edge9" class="edge">
<title>4&#45;&gt;5</title>
<path fill="none" stroke="black" d="M61.99,-72.05C64.98,-64.32 68.59,-54.96 71.94,-46.27"/>
<polygon fill="black" stroke="black" points="75.1,-47.79 75.44,-37.2 68.57,-45.27 75.1,-47.79"/>
</g>
<!-- 2&#45;&gt;0 -->
<g id="edge6" class="edge">
<title>2&#45;&gt;0</title>
<path fill="none" stroke="black" d="M131.08,-250.93C137.2,-261.07 144.27,-274.75 147.46,-288 158.51,-334.04 147.24,-389.14 138.23,-421.48"/>
<polygon fill="black" stroke="black" points="134.94,-420.28 135.48,-430.86 141.66,-422.25 134.94,-420.28"/>
</g>
<!-- 2&#45;&gt;6 -->
<g id="edge5" class="edge">
<title>2&#45;&gt;6</title>
<path fill="none" stroke="black" d="M113.92,-216.05C110.94,-208.32 107.33,-198.96 103.97,-190.27"/>
<polygon fill="black" stroke="black" points="107.34,-189.27 100.48,-181.2 100.81,-191.79 107.34,-189.27"/>
</g>
<!-- 6&#45;&gt;4 -->
<g id="edge13" class="edge">
<title>6&#45;&gt;4</title>
<path fill="none" stroke="black" d="M79.76,-146.15C74.39,-138.11 68.52,-127.9 63.76,-118.47"/>
<polygon fill="black" stroke="black" points="67.03,-117.19 59.58,-109.66 60.7,-120.19 67.03,-117.19"/>
</g>
<!-- 6&#45;&gt;5 -->
<g id="edge14" class="edge">
<title>6&#45;&gt;5</title>
<path fill="none" stroke="black" d="M93.81,-143.56C94.01,-125.59 93.82,-96.77 91.46,-72 90.69,-63.98 89.42,-55.34 88.07,-47.41"/>
<polygon fill="black" stroke="black" points="91.51,-46.8 86.28,-37.59 84.62,-48.05 91.51,-46.8"/>
</g>
<!-- 5&#45;&gt;1 -->
<g id="edge11" class="edge">
<title>5&#45;&gt;1</title>
<path fill="none" stroke="black" d="M62.62,-30.62C48.4,-39.99 29.98,-54.48 19.46,-72 -1.37,-106.67 0.46,-120.55 0.46,-161 0.46,-235 0.46,-235 0.46,-235 0.46,-279.67 27.38,-325.66 46.57,-352.77"/>
<polygon fill="black" stroke="black" points="43.61,-354.64 52.34,-360.64 49.25,-350.51 43.61,-354.64"/>
</g>
<!-- 5&#45;&gt;2 -->
<g id="edge12" class="edge">
<title>5&#45;&gt;2</title>
<path fill="none" stroke="black" d="M90.52,-35.5C95.44,-45.85 101.67,-59.56 106.46,-72 124.07,-117.8 133.58,-131.1 129.46,-180 128.78,-188.03 127.54,-196.67 126.18,-204.6"/>
<polygon fill="black" stroke="black" points="122.74,-203.95 124.38,-214.42 129.63,-205.21 122.74,-203.95"/>
</g>
</g>
</svg>
