<?xml version="1.0" encoding="UTF-8" standalone="no"?>
<!DOCTYPE svg PUBLIC "-//W3C//DTD SVG 1.1//EN"
 "http://www.w3.org/Graphics/SVG/1.1/DTD/svg11.dtd">
<!-- Generated by graphviz version 12.1.1 (20240910.0053)
 -->
<!-- Pages: 1 -->
<svg width="226pt" height="260pt"
 viewBox="0.00 0.00 226.00 260.00" xmlns="http://www.w3.org/2000/svg" xmlns:xlink="http://www.w3.org/1999/xlink">
<g id="graph0" class="graph" transform="scale(1 1) rotate(0) translate(4 256)">
<polygon fill="white" stroke="none" points="-4,4 -4,-256 222,-256 222,4 -4,4"/>
<!-- 1 -->
<g id="node1" class="node">
<title>1</title>
<ellipse fill="none" stroke="black" cx="27" cy="-234" rx="27" ry="18"/>
<text text-anchor="middle" x="27" y="-228.95" font-family="Times New Roman,serif" font-size="14.00">1</text>
</g>
<!-- 0 -->
<g id="node2" class="node">
<title>0</title>
<ellipse fill="none" stroke="black" cx="109" cy="-18" rx="27" ry="18"/>
<text text-anchor="middle" x="109" y="-12.95" font-family="Times New Roman,serif" font-size="14.00">0</text>
</g>
<!-- 1&#45;&#45;0 -->
<g id="edge1" class="edge">
<title>1&#45;&#45;0</title>
<path fill="none" stroke="black" d="M14.24,-217.78C8.16,-188.52 22.23,-122.82 46,-72 54.25,-54.37 68.04,-36.07 84.57,-26.26"/>
</g>
<!-- 1&#45;&#45;0 -->
<g id="edge5" class="edge">
<title>1&#45;&#45;0</title>
<path fill="none" stroke="black" d="M24.64,-215.92C26.74,-185.8 40.72,-121.77 64,-72 70.88,-57.29 81.62,-42.12 91.25,-31.8"/>
</g>
<!-- 1&#45;&#45;0 -->
<g id="edge6" class="edge">
<title>1&#45;&#45;0</title>
<path fill="none" stroke="black" d="M35.25,-216.39C44.6,-186.48 58.6,-122.03 82,-72 88.03,-59.1 97.03,-45.85 103.4,-35.83"/>
</g>
<!-- 1&#45;&#45;0 -->
<g id="edge8" class="edge">
<title>1&#45;&#45;0</title>
<path fill="none" stroke="black" d="M44.03,-219.55C61.58,-191.25 75.74,-123.87 100,-72 106.22,-58.7 115.6,-45.02 119.52,-34.9"/>
</g>
<!-- 3 -->
<g id="node3" class="node">
<title>3</title>
<ellipse fill="none" stroke="black" cx="109" cy="-162" rx="27" ry="18"/>
<text text-anchor="middle" x="109" y="-156.95" font-family="Times New Roman,serif" font-size="14.00">3</text>
</g>
<!-- 1&#45;&#45;3 -->
<g id="edge2" class="edge">
<title>1&#45;&#45;3</title>
<path fill="none" stroke="black" d="M39.11,-217.81C52.62,-204.94 74.08,-186.75 89.82,-174.91"/>
</g>
<!-- 1&#45;&#45;3 -->
<g id="edge7" class="edge">
<title>1&#45;&#45;3</title>
<path fill="none" stroke="black" d="M46.13,-221.13C61.79,-209.35 83.17,-191.24 96.7,-178.37"/>
</g>
<!-- 4 -->
<g id="node4" class="node">
<title>4</title>
<ellipse fill="none" stroke="black" cx="109" cy="-90" rx="27" ry="18"/>
<text text-anchor="middle" x="109" y="-84.95" font-family="Times New Roman,serif" font-size="14.00">4</text>
</g>
<!-- 3&#45;&#45;4 -->
<g id="edge3" class="edge">
<title>3&#45;&#45;4</title>
<path fill="none" stroke="black" d="M103.12,-144.05C101.95,-133.05 101.96,-118.76 103.14,-107.79"/>
</g>
<!-- 3&#45;&#45;4 -->
<g id="edge13" class="edge">
<title>3&#45;&#45;4</title>
<path fill="none" stroke="black" d="M114.88,-144.05C116.05,-133.05 116.04,-118.76 114.86,-107.79"/>
</g>
<!-- 4&#45;&#45;0 -->
<g id="edge4" class="edge">
<title>4&#45;&#45;0</title>
<path fill="none" stroke="black" d="M92.63,-75.5C87.45,-63.11 87.46,-44.84 92.64,-32.46"/>
</g>
<!-- 4&#45;&#45;0 -->
<g id="edge14" class="edge">
<title>4&#45;&#45;0</title>
<path fill="none" stroke="black" d="M103.12,-72.05C101.95,-61.05 101.96,-46.76 103.14,-35.79"/>
</g>
<!-- 4&#45;&#45;0 -->
<g id="edge17" class="edge">
<title>4&#45;&#45;0</title>
<path fill="none" stroke="black" d="M114.88,-72.05C116.05,-61.05 116.04,-46.76 114.86,-35.79"/>
</g>
<!-- 4&#45;&#45;0 -->
<g id="edge18" class="edge">
<title>4&#45;&#45;0</title>
<path fill="none" stroke="black" d="M125.37,-75.5C130.55,-63.11 130.54,-44.84 125.36,-32.46"/>
</g>
<!-- 2 -->
<g id="node5" class="node">
<title>2</title>
<ellipse fill="none" stroke="black" cx="191" cy="-234" rx="27" ry="18"/>
<text text-anchor="middle" x="191" y="-228.95" font-family="Times New Roman,serif" font-size="14.00">2</text>
</g>
<!-- 2&#45;&#45;0 -->
<g id="edge10" class="edge">
<title>2&#45;&#45;0</title>
<path fill="none" stroke="black" d="M173.97,-219.55C156.42,-191.25 142.26,-123.87 118,-72 111.78,-58.7 102.4,-45.02 98.48,-34.9"/>
</g>
<!-- 2&#45;&#45;0 -->
<g id="edge12" class="edge">
<title>2&#45;&#45;0</title>
<path fill="none" stroke="black" d="M182.75,-216.39C173.4,-186.48 159.4,-122.03 136,-72 129.97,-59.1 120.97,-45.85 114.6,-35.83"/>
</g>
<!-- 2&#45;&#45;0 -->
<g id="edge15" class="edge">
<title>2&#45;&#45;0</title>
<path fill="none" stroke="black" d="M193.36,-215.92C191.26,-185.8 177.28,-121.77 154,-72 147.12,-57.29 136.38,-42.12 126.75,-31.8"/>
</g>
<!-- 2&#45;&#45;0 -->
<g id="edge16" class="edge">
<title>2&#45;&#45;0</title>
<path fill="none" stroke="black" d="M203.76,-217.78C209.84,-188.52 195.77,-122.82 172,-72 163.75,-54.37 149.96,-36.07 133.43,-26.26"/>
</g>
<!-- 2&#45;&#45;3 -->
<g id="edge9" class="edge">
<title>2&#45;&#45;3</title>
<path fill="none" stroke="black" d="M171.87,-221.13C156.21,-209.35 134.83,-191.24 121.3,-178.37"/>
</g>
<!-- 2&#45;&#45;3 -->
<g id="edge11" class="edge">
<title>2&#45;&#45;3</title>
<path fill="none" stroke="black" d="M178.89,-217.81C165.38,-204.94 143.92,-186.75 128.18,-174.91"/>
</g>
</g>
</svg>
