<?xml version="1.0" encoding="UTF-8" standalone="no"?>
<!DOCTYPE svg PUBLIC "-//W3C//DTD SVG 1.1//EN"
 "http://www.w3.org/Graphics/SVG/1.1/DTD/svg11.dtd">
<!-- Generated by graphviz version 12.1.1 (20240910.0053)
 -->
<!-- Pages: 1 -->
<svg width="747pt" height="548pt"
 viewBox="0.00 0.00 747.42 548.00" xmlns="http://www.w3.org/2000/svg" xmlns:xlink="http://www.w3.org/1999/xlink">
<g id="graph0" class="graph" transform="scale(1 1) rotate(0) translate(4 544)">
<polygon fill="white" stroke="none" points="-4,4 -4,-544 743.42,-544 743.42,4 -4,4"/>
<!-- 1,1(3) -->
<g id="node1" class="node">
<title>1,1(3)</title>
<ellipse fill="none" stroke="black" cx="69.44" cy="-234" rx="33.44" ry="18"/>
<text text-anchor="middle" x="69.44" y="-228.95" font-family="Times New Roman,serif" font-size="14.00">1,1(3)</text>
</g>
<!-- 1,2(3) -->
<g id="node2" class="node">
<title>1,2(3)</title>
<ellipse fill="none" stroke="black" cx="112.44" cy="-162" rx="33.44" ry="18"/>
<text text-anchor="middle" x="112.44" y="-156.95" font-family="Times New Roman,serif" font-size="14.00">1,2(3)</text>
</g>
<!-- 1,1(3)&#45;&gt;1,2(3) -->
<g id="edge1" class="edge">
<title>1,1(3)&#45;&gt;1,2(3)</title>
<path fill="none" stroke="black" d="M74.15,-215.7C78.51,-207.16 84.74,-196.72 90.99,-187.4"/>
<polygon fill="black" stroke="black" points="93.69,-189.64 96.55,-179.44 87.95,-185.63 93.69,-189.64"/>
</g>
<!-- 1,2(3)&#45;&gt;1,1(3) -->
<g id="edge7" class="edge">
<title>1,2(3)&#45;&gt;1,1(3)</title>
<path fill="none" stroke="black" d="M107.81,-180.13C103.45,-188.68 97.19,-199.18 90.92,-208.57"/>
<polygon fill="black" stroke="black" points="88.18,-206.37 85.31,-216.57 93.92,-210.38 88.18,-206.37"/>
</g>
<!-- 2,2(1) -->
<g id="node5" class="node">
<title>2,2(1)</title>
<ellipse fill="none" stroke="black" cx="185.44" cy="-90" rx="33.44" ry="18"/>
<text text-anchor="middle" x="185.44" y="-84.95" font-family="Times New Roman,serif" font-size="14.00">2,2(1)</text>
</g>
<!-- 1,2(3)&#45;&gt;2,2(1) -->
<g id="edge8" class="edge">
<title>1,2(3)&#45;&gt;2,2(1)</title>
<path fill="none" stroke="black" d="M128.28,-145.81C137.94,-136.55 150.48,-124.52 161.35,-114.09"/>
<polygon fill="black" stroke="black" points="163.74,-116.65 168.54,-107.21 158.9,-111.6 163.74,-116.65"/>
</g>
<!-- 2,1(4) -->
<g id="node3" class="node">
<title>2,1(4)</title>
<ellipse fill="none" stroke="black" cx="33.44" cy="-306" rx="33.44" ry="18"/>
<text text-anchor="middle" x="33.44" y="-300.95" font-family="Times New Roman,serif" font-size="14.00">2,1(4)</text>
</g>
<!-- 2,1(4)&#45;&gt;1,1(3) -->
<g id="edge2" class="edge">
<title>2,1(4)&#45;&gt;1,1(3)</title>
<path fill="none" stroke="black" d="M41.97,-288.41C46.09,-280.39 51.15,-270.57 55.79,-261.54"/>
<polygon fill="black" stroke="black" points="58.81,-263.31 60.28,-252.82 52.59,-260.11 58.81,-263.31"/>
</g>
<!-- 3,1(1) -->
<g id="node4" class="node">
<title>3,1(1)</title>
<ellipse fill="none" stroke="black" cx="154.44" cy="-234" rx="33.44" ry="18"/>
<text text-anchor="middle" x="154.44" y="-228.95" font-family="Times New Roman,serif" font-size="14.00">3,1(1)</text>
</g>
<!-- 2,1(4)&#45;&gt;3,1(1) -->
<g id="edge3" class="edge">
<title>2,1(4)&#45;&gt;3,1(1)</title>
<path fill="none" stroke="black" d="M55.63,-292.16C74.39,-281.31 101.51,-265.62 122.59,-253.43"/>
<polygon fill="black" stroke="black" points="124.17,-256.55 131.08,-248.52 120.67,-250.49 124.17,-256.55"/>
</g>
<!-- 2,1(4)&#45;&gt;2,2(1) -->
<g id="edge4" class="edge">
<title>2,1(4)&#45;&gt;2,2(1)</title>
<path fill="none" stroke="black" d="M31,-287.86C29.65,-277.5 28.12,-264.02 27.44,-252 26.54,-236.03 23.18,-231.42 27.44,-216 37.35,-180.07 42.72,-168.92 70.44,-144 91.89,-124.72 121.57,-111.28 145.4,-102.76"/>
<polygon fill="black" stroke="black" points="146.45,-106.1 154.79,-99.56 144.2,-99.47 146.45,-106.1"/>
</g>
<!-- 4,1(2) -->
<g id="node6" class="node">
<title>4,1(2)</title>
<ellipse fill="none" stroke="black" cx="118.44" cy="-306" rx="33.44" ry="18"/>
<text text-anchor="middle" x="118.44" y="-300.95" font-family="Times New Roman,serif" font-size="14.00">4,1(2)</text>
</g>
<!-- 4,1(2)&#45;&gt;3,1(1) -->
<g id="edge5" class="edge">
<title>4,1(2)&#45;&gt;3,1(1)</title>
<path fill="none" stroke="black" d="M126.97,-288.41C131.09,-280.39 136.15,-270.57 140.79,-261.54"/>
<polygon fill="black" stroke="black" points="143.81,-263.31 145.28,-252.82 137.59,-260.11 143.81,-263.31"/>
</g>
<!-- 5,1(4) -->
<g id="node7" class="node">
<title>5,1(4)</title>
<ellipse fill="none" stroke="black" cx="118.44" cy="-378" rx="33.44" ry="18"/>
<text text-anchor="middle" x="118.44" y="-372.95" font-family="Times New Roman,serif" font-size="14.00">5,1(4)</text>
</g>
<!-- 5,1(4)&#45;&gt;4,1(2) -->
<g id="edge6" class="edge">
<title>5,1(4)&#45;&gt;4,1(2)</title>
<path fill="none" stroke="black" d="M118.44,-359.7C118.44,-352.41 118.44,-343.73 118.44,-335.54"/>
<polygon fill="black" stroke="black" points="121.94,-335.62 118.44,-325.62 114.94,-335.62 121.94,-335.62"/>
</g>
<!-- 3,2(2) -->
<g id="node8" class="node">
<title>3,2(2)</title>
<ellipse fill="none" stroke="black" cx="203.44" cy="-306" rx="33.44" ry="18"/>
<text text-anchor="middle" x="203.44" y="-300.95" font-family="Times New Roman,serif" font-size="14.00">3,2(2)</text>
</g>
<!-- 3,2(2)&#45;&gt;3,1(1) -->
<g id="edge9" class="edge">
<title>3,2(2)&#45;&gt;3,1(1)</title>
<path fill="none" stroke="black" d="M192.07,-288.76C186.2,-280.37 178.89,-269.93 172.28,-260.5"/>
<polygon fill="black" stroke="black" points="175.21,-258.57 166.61,-252.39 169.48,-262.59 175.21,-258.57"/>
</g>
<!-- 3,2(2)&#45;&gt;2,2(1) -->
<g id="edge10" class="edge">
<title>3,2(2)&#45;&gt;2,2(1)</title>
<path fill="none" stroke="black" d="M202.12,-287.6C200.74,-269.66 198.51,-240.87 196.44,-216 193.69,-182.98 190.32,-145.07 188.04,-119.73"/>
<polygon fill="black" stroke="black" points="191.54,-119.54 187.16,-109.89 184.57,-120.17 191.54,-119.54"/>
</g>
<!-- 3,3(1) -->
<g id="node9" class="node">
<title>3,3(1)</title>
<ellipse fill="none" stroke="black" cx="363.44" cy="-234" rx="33.44" ry="18"/>
<text text-anchor="middle" x="363.44" y="-228.95" font-family="Times New Roman,serif" font-size="14.00">3,3(1)</text>
</g>
<!-- 3,2(2)&#45;&gt;3,3(1) -->
<g id="edge11" class="edge">
<title>3,2(2)&#45;&gt;3,3(1)</title>
<path fill="none" stroke="black" d="M228.79,-293.91C255.39,-282.27 297.44,-263.87 327.47,-250.74"/>
<polygon fill="black" stroke="black" points="328.79,-253.98 336.55,-246.76 325.99,-247.56 328.79,-253.98"/>
</g>
<!-- 4,3(1) -->
<g id="node11" class="node">
<title>4,3(1)</title>
<ellipse fill="none" stroke="black" cx="363.44" cy="-162" rx="33.44" ry="18"/>
<text text-anchor="middle" x="363.44" y="-156.95" font-family="Times New Roman,serif" font-size="14.00">4,3(1)</text>
</g>
<!-- 3,3(1)&#45;&gt;4,3(1) -->
<g id="edge23" class="edge">
<title>3,3(1)&#45;&gt;4,3(1)</title>
<path fill="none" stroke="black" d="M357.56,-216.05C356.77,-208.57 356.51,-199.58 356.8,-191.14"/>
<polygon fill="black" stroke="black" points="360.29,-191.51 357.47,-181.3 353.3,-191.04 360.29,-191.51"/>
</g>
<!-- 4,2(4) -->
<g id="node10" class="node">
<title>4,2(4)</title>
<ellipse fill="none" stroke="black" cx="203.44" cy="-378" rx="33.44" ry="18"/>
<text text-anchor="middle" x="203.44" y="-372.95" font-family="Times New Roman,serif" font-size="14.00">4,2(4)</text>
</g>
<!-- 4,2(4)&#45;&gt;4,1(2) -->
<g id="edge12" class="edge">
<title>4,2(4)&#45;&gt;4,1(2)</title>
<path fill="none" stroke="black" d="M185.83,-362.5C173.97,-352.73 158.13,-339.69 144.79,-328.7"/>
<polygon fill="black" stroke="black" points="147.14,-326.1 137.2,-322.45 142.69,-331.51 147.14,-326.1"/>
</g>
<!-- 4,2(4)&#45;&gt;3,2(2) -->
<g id="edge13" class="edge">
<title>4,2(4)&#45;&gt;3,2(2)</title>
<path fill="none" stroke="black" d="M203.44,-359.7C203.44,-352.41 203.44,-343.73 203.44,-335.54"/>
<polygon fill="black" stroke="black" points="206.94,-335.62 203.44,-325.62 199.94,-335.62 206.94,-335.62"/>
</g>
<!-- 4,2(4)&#45;&gt;4,3(1) -->
<g id="edge14" class="edge">
<title>4,2(4)&#45;&gt;4,3(1)</title>
<path fill="none" stroke="black" d="M217.59,-361.64C226.42,-351.5 237.56,-337.62 245.44,-324 271.31,-279.28 256.47,-256.58 288.44,-216 299.66,-201.75 315.72,-189.7 330.1,-180.71"/>
<polygon fill="black" stroke="black" points="331.61,-183.89 338.4,-175.76 328.02,-177.87 331.61,-183.89"/>
</g>
<!-- 4,3(1)&#45;&gt;3,3(1) -->
<g id="edge24" class="edge">
<title>4,3(1)&#45;&gt;3,3(1)</title>
<path fill="none" stroke="black" d="M369.3,-179.79C370.1,-187.25 370.36,-196.24 370.08,-204.69"/>
<polygon fill="black" stroke="black" points="366.59,-204.33 369.42,-214.54 373.58,-204.8 366.59,-204.33"/>
</g>
<!-- 5,2(6) -->
<g id="node12" class="node">
<title>5,2(6)</title>
<ellipse fill="none" stroke="black" cx="203.44" cy="-450" rx="33.44" ry="18"/>
<text text-anchor="middle" x="203.44" y="-444.95" font-family="Times New Roman,serif" font-size="14.00">5,2(6)</text>
</g>
<!-- 5,2(6)&#45;&gt;5,1(4) -->
<g id="edge15" class="edge">
<title>5,2(6)&#45;&gt;5,1(4)</title>
<path fill="none" stroke="black" d="M185.83,-434.5C173.97,-424.73 158.13,-411.69 144.79,-400.7"/>
<polygon fill="black" stroke="black" points="147.14,-398.1 137.2,-394.45 142.69,-403.51 147.14,-398.1"/>
</g>
<!-- 5,2(6)&#45;&gt;4,2(4) -->
<g id="edge16" class="edge">
<title>5,2(6)&#45;&gt;4,2(4)</title>
<path fill="none" stroke="black" d="M203.44,-431.7C203.44,-424.41 203.44,-415.73 203.44,-407.54"/>
<polygon fill="black" stroke="black" points="206.94,-407.62 203.44,-397.62 199.94,-407.62 206.94,-407.62"/>
</g>
<!-- 1,3(6) -->
<g id="node13" class="node">
<title>1,3(6)</title>
<ellipse fill="none" stroke="black" cx="485.44" cy="-234" rx="33.44" ry="18"/>
<text text-anchor="middle" x="485.44" y="-228.95" font-family="Times New Roman,serif" font-size="14.00">1,3(6)</text>
</g>
<!-- 1,3(6)&#45;&gt;1,2(3) -->
<g id="edge17" class="edge">
<title>1,3(6)&#45;&gt;1,2(3)</title>
<path fill="none" stroke="black" d="M454.71,-226.24C439.85,-223.03 421.74,-219.21 405.44,-216 316.7,-198.55 212.41,-180.2 155.27,-170.33"/>
<polygon fill="black" stroke="black" points="156.09,-166.92 145.64,-168.67 154.9,-173.82 156.09,-166.92"/>
</g>
<!-- 1,4(1) -->
<g id="node14" class="node">
<title>1,4(1)</title>
<ellipse fill="none" stroke="black" cx="637.44" cy="-18" rx="33.44" ry="18"/>
<text text-anchor="middle" x="637.44" y="-12.95" font-family="Times New Roman,serif" font-size="14.00">1,4(1)</text>
</g>
<!-- 1,3(6)&#45;&gt;1,4(1) -->
<g id="edge18" class="edge">
<title>1,3(6)&#45;&gt;1,4(1)</title>
<path fill="none" stroke="black" d="M496.86,-216.92C523.05,-180.04 587.59,-89.18 619.28,-44.56"/>
<polygon fill="black" stroke="black" points="622.07,-46.68 625,-36.51 616.36,-42.63 622.07,-46.68"/>
</g>
<!-- 1,5(1) -->
<g id="node19" class="node">
<title>1,5(1)</title>
<ellipse fill="none" stroke="black" cx="668.44" cy="-90" rx="33.44" ry="18"/>
<text text-anchor="middle" x="668.44" y="-84.95" font-family="Times New Roman,serif" font-size="14.00">1,5(1)</text>
</g>
<!-- 1,4(1)&#45;&gt;1,5(1) -->
<g id="edge28" class="edge">
<title>1,4(1)&#45;&gt;1,5(1)</title>
<path fill="none" stroke="black" d="M650.11,-34.67C654.49,-42.49 659.08,-52.17 662.75,-61.19"/>
<polygon fill="black" stroke="black" points="659.37,-62.15 666.16,-70.28 665.92,-59.69 659.37,-62.15"/>
</g>
<!-- 2,3(9) -->
<g id="node15" class="node">
<title>2,3(9)</title>
<ellipse fill="none" stroke="black" cx="485.44" cy="-306" rx="33.44" ry="18"/>
<text text-anchor="middle" x="485.44" y="-300.95" font-family="Times New Roman,serif" font-size="14.00">2,3(9)</text>
</g>
<!-- 2,3(9)&#45;&gt;2,2(1) -->
<g id="edge19" class="edge">
<title>2,3(9)&#45;&gt;2,2(1)</title>
<path fill="none" stroke="black" d="M501.65,-289.84C518.87,-271.83 541.76,-241.07 527.44,-216 468.03,-111.96 309.14,-93.46 230.63,-90.86"/>
<polygon fill="black" stroke="black" points="230.8,-87.36 220.71,-90.62 230.62,-94.36 230.8,-87.36"/>
</g>
<!-- 2,3(9)&#45;&gt;3,3(1) -->
<g id="edge20" class="edge">
<title>2,3(9)&#45;&gt;3,3(1)</title>
<path fill="none" stroke="black" d="M463.06,-292.16C444.14,-281.31 416.81,-265.62 395.55,-253.43"/>
<polygon fill="black" stroke="black" points="397.4,-250.45 386.99,-248.51 393.92,-256.52 397.4,-250.45"/>
</g>
<!-- 2,3(9)&#45;&gt;1,3(6) -->
<g id="edge21" class="edge">
<title>2,3(9)&#45;&gt;1,3(6)</title>
<path fill="none" stroke="black" d="M485.44,-287.7C485.44,-280.41 485.44,-271.73 485.44,-263.54"/>
<polygon fill="black" stroke="black" points="488.94,-263.62 485.44,-253.62 481.94,-263.62 488.94,-263.62"/>
</g>
<!-- 2,4(7) -->
<g id="node16" class="node">
<title>2,4(7)</title>
<ellipse fill="none" stroke="black" cx="607.44" cy="-234" rx="33.44" ry="18"/>
<text text-anchor="middle" x="607.44" y="-228.95" font-family="Times New Roman,serif" font-size="14.00">2,4(7)</text>
</g>
<!-- 2,3(9)&#45;&gt;2,4(7) -->
<g id="edge22" class="edge">
<title>2,3(9)&#45;&gt;2,4(7)</title>
<path fill="none" stroke="black" d="M507.81,-292.16C526.73,-281.31 554.07,-265.62 575.32,-253.43"/>
<polygon fill="black" stroke="black" points="576.96,-256.52 583.89,-248.51 573.47,-250.45 576.96,-256.52"/>
</g>
<!-- 2,4(7)&#45;&gt;1,4(1) -->
<g id="edge29" class="edge">
<title>2,4(7)&#45;&gt;1,4(1)</title>
<path fill="none" stroke="black" d="M609,-215.54C611.75,-185.91 618,-123.95 626.44,-72 627.75,-63.9 629.45,-55.16 631.12,-47.15"/>
<polygon fill="black" stroke="black" points="634.49,-48.11 633.17,-37.6 627.65,-46.64 634.49,-48.11"/>
</g>
<!-- 2,5(1) -->
<g id="node20" class="node">
<title>2,5(1)</title>
<ellipse fill="none" stroke="black" cx="668.44" cy="-162" rx="33.44" ry="18"/>
<text text-anchor="middle" x="668.44" y="-156.95" font-family="Times New Roman,serif" font-size="14.00">2,5(1)</text>
</g>
<!-- 2,4(7)&#45;&gt;2,5(1) -->
<g id="edge30" class="edge">
<title>2,4(7)&#45;&gt;2,5(1)</title>
<path fill="none" stroke="black" d="M621.28,-217.12C628.92,-208.34 638.58,-197.26 647.16,-187.42"/>
<polygon fill="black" stroke="black" points="649.73,-189.8 653.66,-179.96 644.45,-185.2 649.73,-189.8"/>
</g>
<!-- 5,3(7) -->
<g id="node17" class="node">
<title>5,3(7)</title>
<ellipse fill="none" stroke="black" cx="302.44" cy="-522" rx="33.44" ry="18"/>
<text text-anchor="middle" x="302.44" y="-516.95" font-family="Times New Roman,serif" font-size="14.00">5,3(7)</text>
</g>
<!-- 5,3(7)&#45;&gt;4,3(1) -->
<g id="edge25" class="edge">
<title>5,3(7)&#45;&gt;4,3(1)</title>
<path fill="none" stroke="black" d="M302.44,-503.51C302.44,-476.71 302.44,-423.87 302.44,-379 302.44,-379 302.44,-379 302.44,-305 302.44,-264.55 304.2,-252.59 321.44,-216 326.29,-205.7 333.49,-195.61 340.56,-187.03"/>
<polygon fill="black" stroke="black" points="343.16,-189.38 347.08,-179.53 337.88,-184.79 343.16,-189.38"/>
</g>
<!-- 5,3(7)&#45;&gt;5,2(6) -->
<g id="edge26" class="edge">
<title>5,3(7)&#45;&gt;5,2(6)</title>
<path fill="none" stroke="black" d="M282.88,-507.17C268.37,-496.91 248.36,-482.77 232.06,-471.24"/>
<polygon fill="black" stroke="black" points="234.38,-468.59 224.19,-465.67 230.34,-474.31 234.38,-468.59"/>
</g>
<!-- 5,4(3) -->
<g id="node18" class="node">
<title>5,4(3)</title>
<ellipse fill="none" stroke="black" cx="570.44" cy="-306" rx="33.44" ry="18"/>
<text text-anchor="middle" x="570.44" y="-300.95" font-family="Times New Roman,serif" font-size="14.00">5,4(3)</text>
</g>
<!-- 5,3(7)&#45;&gt;5,4(3) -->
<g id="edge27" class="edge">
<title>5,3(7)&#45;&gt;5,4(3)</title>
<path fill="none" stroke="black" d="M312.95,-504.65C334.12,-472.84 384.92,-402.08 443.44,-360 447.4,-357.15 498.03,-336.35 534.15,-321.68"/>
<polygon fill="black" stroke="black" points="535.01,-325.1 542.96,-318.1 532.37,-318.62 535.01,-325.1"/>
</g>
<!-- 1,5(1)&#45;&gt;1,4(1) -->
<g id="edge38" class="edge">
<title>1,5(1)&#45;&gt;1,4(1)</title>
<path fill="none" stroke="black" d="M655.64,-73.12C651.34,-65.4 646.84,-55.9 643.22,-47.02"/>
<polygon fill="black" stroke="black" points="646.51,-45.84 639.71,-37.71 639.96,-48.3 646.51,-45.84"/>
</g>
<!-- 1,5(1)&#45;&gt;2,5(1) -->
<g id="edge39" class="edge">
<title>1,5(1)&#45;&gt;2,5(1)</title>
<path fill="none" stroke="black" d="M674.3,-107.79C675.1,-115.25 675.36,-124.24 675.08,-132.69"/>
<polygon fill="black" stroke="black" points="671.59,-132.33 674.42,-142.54 678.58,-132.8 671.59,-132.33"/>
</g>
<!-- 2,5(1)&#45;&gt;1,5(1) -->
<g id="edge40" class="edge">
<title>2,5(1)&#45;&gt;1,5(1)</title>
<path fill="none" stroke="black" d="M662.56,-144.05C661.77,-136.57 661.51,-127.58 661.8,-119.14"/>
<polygon fill="black" stroke="black" points="665.29,-119.51 662.47,-109.3 658.3,-119.04 665.29,-119.51"/>
</g>
<!-- 3,5(1) -->
<g id="node23" class="node">
<title>3,5(1)</title>
<ellipse fill="none" stroke="black" cx="692.44" cy="-234" rx="33.44" ry="18"/>
<text text-anchor="middle" x="692.44" y="-228.95" font-family="Times New Roman,serif" font-size="14.00">3,5(1)</text>
</g>
<!-- 2,5(1)&#45;&gt;3,5(1) -->
<g id="edge41" class="edge">
<title>2,5(1)&#45;&gt;3,5(1)</title>
<path fill="none" stroke="black" d="M679.76,-179.14C683.23,-186.75 686.7,-196.05 689.39,-204.76"/>
<polygon fill="black" stroke="black" points="685.98,-205.53 692.02,-214.24 692.72,-203.67 685.98,-205.53"/>
</g>
<!-- 3,4(9) -->
<g id="node21" class="node">
<title>3,4(9)</title>
<ellipse fill="none" stroke="black" cx="490.44" cy="-450" rx="33.44" ry="18"/>
<text text-anchor="middle" x="490.44" y="-444.95" font-family="Times New Roman,serif" font-size="14.00">3,4(9)</text>
</g>
<!-- 3,4(9)&#45;&gt;3,3(1) -->
<g id="edge31" class="edge">
<title>3,4(9)&#45;&gt;3,3(1)</title>
<path fill="none" stroke="black" d="M474.87,-433.67C465.1,-423.54 452.65,-409.66 443.44,-396 413.65,-351.83 388.02,-294.98 374.24,-262"/>
<polygon fill="black" stroke="black" points="377.66,-261.1 370.61,-253.18 371.18,-263.76 377.66,-261.1"/>
</g>
<!-- 3,4(9)&#45;&gt;2,4(7) -->
<g id="edge32" class="edge">
<title>3,4(9)&#45;&gt;2,4(7)</title>
<path fill="none" stroke="black" d="M522.98,-444.79C551.96,-439.13 592.74,-426.03 612.44,-396 638.89,-355.66 627.43,-296.58 617.13,-262.34"/>
<polygon fill="black" stroke="black" points="620.58,-261.64 614.2,-253.18 613.91,-263.77 620.58,-261.64"/>
</g>
<!-- 4,4(4) -->
<g id="node22" class="node">
<title>4,4(4)</title>
<ellipse fill="none" stroke="black" cx="485.44" cy="-378" rx="33.44" ry="18"/>
<text text-anchor="middle" x="485.44" y="-372.95" font-family="Times New Roman,serif" font-size="14.00">4,4(4)</text>
</g>
<!-- 3,4(9)&#45;&gt;4,4(4) -->
<g id="edge33" class="edge">
<title>3,4(9)&#45;&gt;4,4(4)</title>
<path fill="none" stroke="black" d="M489.2,-431.7C488.68,-424.41 488.06,-415.73 487.48,-407.54"/>
<polygon fill="black" stroke="black" points="490.97,-407.34 486.77,-397.61 483.99,-407.84 490.97,-407.34"/>
</g>
<!-- 3,4(9)&#45;&gt;3,5(1) -->
<g id="edge34" class="edge">
<title>3,4(9)&#45;&gt;3,5(1)</title>
<path fill="none" stroke="black" d="M522.47,-444.39C578.68,-434.31 693.02,-404.39 734.44,-324 741.77,-309.78 739.7,-303.11 734.44,-288 730.66,-277.14 723.62,-266.83 716.37,-258.24"/>
<polygon fill="black" stroke="black" points="719.19,-256.14 709.88,-251.08 714,-260.84 719.19,-256.14"/>
</g>
<!-- 4,4(4)&#45;&gt;4,3(1) -->
<g id="edge35" class="edge">
<title>4,4(4)&#45;&gt;4,3(1)</title>
<path fill="none" stroke="black" d="M471.09,-361.75C462.19,-351.65 451.04,-337.77 443.44,-324 418.85,-279.45 430.02,-260.55 405.44,-216 399.8,-205.78 392.2,-195.5 385.02,-186.75"/>
<polygon fill="black" stroke="black" points="387.91,-184.75 378.77,-179.41 382.58,-189.29 387.91,-184.75"/>
</g>
<!-- 4,4(4)&#45;&gt;5,4(3) -->
<g id="edge36" class="edge">
<title>4,4(4)&#45;&gt;5,4(3)</title>
<path fill="none" stroke="black" d="M503.05,-362.5C514.9,-352.73 530.74,-339.69 544.09,-328.7"/>
<polygon fill="black" stroke="black" points="546.19,-331.51 551.68,-322.45 541.74,-326.1 546.19,-331.51"/>
</g>
<!-- 4,5(1) -->
<g id="node24" class="node">
<title>4,5(1)</title>
<ellipse fill="none" stroke="black" cx="692.44" cy="-306" rx="33.44" ry="18"/>
<text text-anchor="middle" x="692.44" y="-300.95" font-family="Times New Roman,serif" font-size="14.00">4,5(1)</text>
</g>
<!-- 4,4(4)&#45;&gt;4,5(1) -->
<g id="edge37" class="edge">
<title>4,4(4)&#45;&gt;4,5(1)</title>
<path fill="none" stroke="black" d="M511.72,-366.3C517.22,-364.15 523,-361.95 528.44,-360 570.69,-344.84 619.75,-329.24 653.13,-318.93"/>
<polygon fill="black" stroke="black" points="653.83,-322.37 662.36,-316.09 651.78,-315.68 653.83,-322.37"/>
</g>
<!-- 3,5(1)&#45;&gt;2,5(1) -->
<g id="edge42" class="edge">
<title>3,5(1)&#45;&gt;2,5(1)</title>
<path fill="none" stroke="black" d="M681.07,-216.76C677.59,-209.13 674.12,-199.79 671.43,-191.06"/>
<polygon fill="black" stroke="black" points="674.85,-190.29 668.81,-181.58 668.1,-192.15 674.85,-190.29"/>
</g>
<!-- 3,5(1)&#45;&gt;4,5(1) -->
<g id="edge43" class="edge">
<title>3,5(1)&#45;&gt;4,5(1)</title>
<path fill="none" stroke="black" d="M698.3,-251.79C699.1,-259.25 699.36,-268.24 699.08,-276.69"/>
<polygon fill="black" stroke="black" points="695.59,-276.33 698.42,-286.54 702.58,-276.8 695.59,-276.33"/>
</g>
<!-- 4,5(1)&#45;&gt;3,5(1) -->
<g id="edge44" class="edge">
<title>4,5(1)&#45;&gt;3,5(1)</title>
<path fill="none" stroke="black" d="M686.56,-288.05C685.77,-280.57 685.51,-271.58 685.8,-263.14"/>
<polygon fill="black" stroke="black" points="689.29,-263.51 686.47,-253.3 682.3,-263.04 689.29,-263.51"/>
</g>
<!-- 5,5(6) -->
<g id="node25" class="node">
<title>5,5(6)</title>
<ellipse fill="none" stroke="black" cx="570.44" cy="-378" rx="33.44" ry="18"/>
<text text-anchor="middle" x="570.44" y="-372.95" font-family="Times New Roman,serif" font-size="14.00">5,5(6)</text>
</g>
<!-- 5,5(6)&#45;&gt;5,4(3) -->
<g id="edge45" class="edge">
<title>5,5(6)&#45;&gt;5,4(3)</title>
<path fill="none" stroke="black" d="M570.44,-359.7C570.44,-352.41 570.44,-343.73 570.44,-335.54"/>
<polygon fill="black" stroke="black" points="573.94,-335.62 570.44,-325.62 566.94,-335.62 573.94,-335.62"/>
</g>
<!-- 5,5(6)&#45;&gt;4,5(1) -->
<g id="edge46" class="edge">
<title>5,5(6)&#45;&gt;4,5(1)</title>
<path fill="none" stroke="black" d="M592.81,-364.16C611.73,-353.31 639.07,-337.62 660.32,-325.43"/>
<polygon fill="black" stroke="black" points="661.96,-328.52 668.89,-320.51 658.47,-322.45 661.96,-328.52"/>
</g>
</g>
</svg>
