<?xml version="1.0" encoding="UTF-8" standalone="no"?>
<!DOCTYPE svg PUBLIC "-//W3C//DTD SVG 1.1//EN"
 "http://www.w3.org/Graphics/SVG/1.1/DTD/svg11.dtd">
<!-- Generated by graphviz version 12.1.1 (20240910.0053)
 -->
<!-- Pages: 1 -->
<svg width="299pt" height="487pt"
 viewBox="0.00 0.00 298.75 486.50" xmlns="http://www.w3.org/2000/svg" xmlns:xlink="http://www.w3.org/1999/xlink">
<g id="graph0" class="graph" transform="scale(1 1) rotate(0) translate(4 482.5)">
<polygon fill="white" stroke="none" points="-4,4 -4,-482.5 294.75,-482.5 294.75,4 -4,4"/>
<!-- 1 -->
<g id="node1" class="node">
<title>1</title>
<ellipse fill="none" stroke="black" cx="84" cy="-460.5" rx="27" ry="18"/>
<text text-anchor="middle" x="84" y="-455.45" font-family="Times New Roman,serif" font-size="14.00">1</text>
</g>
<!-- 2 -->
<g id="node2" class="node">
<title>2</title>
<ellipse fill="none" stroke="black" cx="142" cy="-372" rx="27" ry="18"/>
<text text-anchor="middle" x="142" y="-366.95" font-family="Times New Roman,serif" font-size="14.00">2</text>
</g>
<!-- 1&#45;&#45;2 -->
<g id="edge1" class="edge">
<title>1&#45;&#45;2</title>
<path fill="none" stroke="black" d="M94.64,-443.63C105.1,-428.03 120.99,-404.34 131.43,-388.76"/>
<text text-anchor="middle" x="121.57" y="-411.2" font-family="Times New Roman,serif" font-size="14.00">1</text>
</g>
<!-- 3 -->
<g id="node3" class="node">
<title>3</title>
<ellipse fill="none" stroke="black" cx="136" cy="-283.5" rx="27" ry="18"/>
<text text-anchor="middle" x="136" y="-278.45" font-family="Times New Roman,serif" font-size="14.00">3</text>
</g>
<!-- 1&#45;&#45;3 -->
<g id="edge2" class="edge">
<title>1&#45;&#45;3</title>
<path fill="none" stroke="black" d="M84.68,-442.28C85.94,-421.05 89.45,-384.09 99.25,-354 105.59,-334.53 117.12,-314.02 125.58,-300.37"/>
<text text-anchor="middle" x="102.62" y="-366.95" font-family="Times New Roman,serif" font-size="14.00">1</text>
</g>
<!-- 4 -->
<g id="node4" class="node">
<title>4</title>
<ellipse fill="none" stroke="black" cx="64" cy="-195" rx="27" ry="18"/>
<text text-anchor="middle" x="64" y="-189.95" font-family="Times New Roman,serif" font-size="14.00">4</text>
</g>
<!-- 1&#45;&#45;4 -->
<g id="edge3" class="edge">
<title>1&#45;&#45;4</title>
<path fill="none" stroke="black" d="M82.48,-442.2C79.34,-406.05 72.01,-319.88 67,-247.5 66.21,-236.06 65.46,-223.19 64.91,-213.17"/>
<text text-anchor="middle" x="76.93" y="-322.7" font-family="Times New Roman,serif" font-size="14.00">2</text>
</g>
<!-- 5 -->
<g id="node5" class="node">
<title>5</title>
<ellipse fill="none" stroke="black" cx="107" cy="-106.5" rx="27" ry="18"/>
<text text-anchor="middle" x="107" y="-101.45" font-family="Times New Roman,serif" font-size="14.00">5</text>
</g>
<!-- 1&#45;&#45;5 -->
<g id="edge4" class="edge">
<title>1&#45;&#45;5</title>
<path fill="none" stroke="black" d="M62.8,-449.3C37.92,-435.68 0,-409 0,-373 0,-373 0,-373 0,-194 0,-171.96 55.58,-136.76 86.62,-118.82"/>
<text text-anchor="middle" x="3.38" y="-278.45" font-family="Times New Roman,serif" font-size="14.00">1</text>
</g>
<!-- 6 -->
<g id="node6" class="node">
<title>6</title>
<ellipse fill="none" stroke="black" cx="162" cy="-18" rx="27" ry="18"/>
<text text-anchor="middle" x="162" y="-12.95" font-family="Times New Roman,serif" font-size="14.00">6</text>
</g>
<!-- 1&#45;&#45;6 -->
<g id="edge5" class="edge">
<title>1&#45;&#45;6</title>
<path fill="none" stroke="black" d="M111.39,-459.7C166.16,-458.52 284,-447.34 284,-373 284,-373 284,-373 284,-105.5 284,-58.5 223.01,-34.72 187.28,-24.82"/>
<text text-anchor="middle" x="287.38" y="-234.2" font-family="Times New Roman,serif" font-size="14.00">2</text>
</g>
<!-- 2&#45;&#45;3 -->
<g id="edge6" class="edge">
<title>2&#45;&#45;3</title>
<path fill="none" stroke="black" d="M140.81,-353.91C139.77,-338.84 138.25,-316.99 137.2,-301.85"/>
<text text-anchor="middle" x="142.91" y="-322.7" font-family="Times New Roman,serif" font-size="14.00">2</text>
</g>
<!-- 2&#45;&#45;4 -->
<g id="edge7" class="edge">
<title>2&#45;&#45;4</title>
<path fill="none" stroke="black" d="M129.14,-355.94C118.21,-342.46 102.81,-321.76 93.25,-301.5 79.29,-271.94 70.89,-234.47 66.87,-213.07"/>
<text text-anchor="middle" x="96.62" y="-278.45" font-family="Times New Roman,serif" font-size="14.00">1</text>
</g>
<!-- 2&#45;&#45;5 -->
<g id="edge8" class="edge">
<title>2&#45;&#45;5</title>
<path fill="none" stroke="black" d="M151.27,-354.78C158.53,-341.07 168.04,-320.68 172,-301.5 180.48,-260.44 183.79,-173.67 165,-142.5 157.35,-129.81 143.18,-121.13 130.76,-115.59"/>
<text text-anchor="middle" x="182.1" y="-234.2" font-family="Times New Roman,serif" font-size="14.00">2</text>
</g>
<!-- 2&#45;&#45;6 -->
<g id="edge9" class="edge">
<title>2&#45;&#45;6</title>
<path fill="none" stroke="black" d="M165.86,-363.15C196.56,-351.36 246,-325.95 246,-284.5 246,-284.5 246,-284.5 246,-105.5 246,-69.5 208.08,-42.82 183.2,-29.2"/>
<text text-anchor="middle" x="249.38" y="-189.95" font-family="Times New Roman,serif" font-size="14.00">1</text>
</g>
<!-- 3&#45;&#45;4 -->
<g id="edge10" class="edge">
<title>3&#45;&#45;4</title>
<path fill="none" stroke="black" d="M123.46,-267.43C110.32,-251.65 89.81,-227.01 76.64,-211.18"/>
<text text-anchor="middle" x="109.82" y="-234.2" font-family="Times New Roman,serif" font-size="14.00">3</text>
</g>
<!-- 3&#45;&#45;5 -->
<g id="edge11" class="edge">
<title>3&#45;&#45;5</title>
<path fill="none" stroke="black" d="M133.17,-265.4C127.62,-231.95 115.4,-158.18 109.84,-124.67"/>
<text text-anchor="middle" x="127.76" y="-189.95" font-family="Times New Roman,serif" font-size="14.00">2</text>
</g>
<!-- 3&#45;&#45;6 -->
<g id="edge12" class="edge">
<title>3&#45;&#45;6</title>
<path fill="none" stroke="black" d="M139.81,-265.48C140.98,-259.79 142.17,-253.39 143,-247.5 154.07,-169.06 159.41,-74.5 161.24,-36.27"/>
<text text-anchor="middle" x="157.56" y="-145.7" font-family="Times New Roman,serif" font-size="14.00">1</text>
</g>
<!-- 4&#45;&#45;5 -->
<g id="edge13" class="edge">
<title>4&#45;&#45;5</title>
<path fill="none" stroke="black" d="M72.09,-177.73C79.73,-162.36 91.13,-139.43 98.8,-123.99"/>
<text text-anchor="middle" x="92.73" y="-145.7" font-family="Times New Roman,serif" font-size="14.00">3</text>
</g>
<!-- 4&#45;&#45;6 -->
<g id="edge14" class="edge">
<title>4&#45;&#45;6</title>
<path fill="none" stroke="black" d="M59.47,-176.8C54.69,-154.93 49.69,-116.64 64.25,-88.5 79.85,-58.36 115.21,-38.42 138.85,-27.92"/>
<text text-anchor="middle" x="67.62" y="-101.45" font-family="Times New Roman,serif" font-size="14.00">2</text>
</g>
<!-- 5&#45;&#45;6 -->
<g id="edge15" class="edge">
<title>5&#45;&#45;6</title>
<path fill="none" stroke="black" d="M117.09,-89.63C126.95,-74.12 141.89,-50.63 151.79,-35.06"/>
<text text-anchor="middle" x="142.8" y="-57.2" font-family="Times New Roman,serif" font-size="14.00">3</text>
</g>
</g>
</svg>
