<?xml version="1.0" encoding="UTF-8" standalone="no"?>
<!DOCTYPE svg PUBLIC "-//W3C//DTD SVG 1.1//EN"
 "http://www.w3.org/Graphics/SVG/1.1/DTD/svg11.dtd">
<!-- Generated by graphviz version 12.1.1 (20240910.0053)
 -->
<!-- Pages: 1 -->
<svg width="879pt" height="332pt"
 viewBox="0.00 0.00 879.00 332.00" xmlns="http://www.w3.org/2000/svg" xmlns:xlink="http://www.w3.org/1999/xlink">
<g id="graph0" class="graph" transform="scale(1 1) rotate(0) translate(4 328)">
<polygon fill="white" stroke="none" points="-4,4 -4,-328 875,-328 875,4 -4,4"/>
<!-- 1 -->
<g id="node1" class="node">
<title>1</title>
<ellipse fill="none" stroke="black" cx="482" cy="-306" rx="27" ry="18"/>
<text text-anchor="middle" x="482" y="-300.95" font-family="Times New Roman,serif" font-size="14.00">1</text>
</g>
<!-- 2 -->
<g id="node2" class="node">
<title>2</title>
<ellipse fill="none" stroke="black" cx="247" cy="-234" rx="27" ry="18"/>
<text text-anchor="middle" x="247" y="-228.95" font-family="Times New Roman,serif" font-size="14.00">2</text>
</g>
<!-- 1&#45;&#45;2 -->
<g id="edge1" class="edge">
<title>1&#45;&#45;2</title>
<path fill="none" stroke="black" d="M457.74,-297.77C412.7,-284.36 316.68,-255.76 271.48,-242.29"/>
</g>
<!-- 3 -->
<g id="node3" class="node">
<title>3</title>
<ellipse fill="none" stroke="black" cx="518" cy="-234" rx="27" ry="18"/>
<text text-anchor="middle" x="518" y="-228.95" font-family="Times New Roman,serif" font-size="14.00">3</text>
</g>
<!-- 1&#45;&#45;3 -->
<g id="edge2" class="edge">
<title>1&#45;&#45;3</title>
<path fill="none" stroke="black" d="M490.35,-288.76C496.17,-277.46 503.89,-262.44 509.7,-251.15"/>
</g>
<!-- 4 -->
<g id="node4" class="node">
<title>4</title>
<ellipse fill="none" stroke="black" cx="247" cy="-162" rx="27" ry="18"/>
<text text-anchor="middle" x="247" y="-156.95" font-family="Times New Roman,serif" font-size="14.00">4</text>
</g>
<!-- 1&#45;&#45;4 -->
<g id="edge3" class="edge">
<title>1&#45;&#45;4</title>
<path fill="none" stroke="black" d="M462.28,-293.52C444,-282.86 416.09,-266.48 392,-252 346.69,-224.76 293.85,-192.1 266.16,-174.92"/>
</g>
<!-- 5 -->
<g id="node5" class="node">
<title>5</title>
<ellipse fill="none" stroke="black" cx="590" cy="-234" rx="27" ry="18"/>
<text text-anchor="middle" x="590" y="-228.95" font-family="Times New Roman,serif" font-size="14.00">5</text>
</g>
<!-- 1&#45;&#45;5 -->
<g id="edge4" class="edge">
<title>1&#45;&#45;5</title>
<path fill="none" stroke="black" d="M500.81,-292.81C520.51,-280.04 551.28,-260.09 571.04,-247.29"/>
</g>
<!-- 7 -->
<g id="node6" class="node">
<title>7</title>
<ellipse fill="none" stroke="black" cx="446" cy="-234" rx="27" ry="18"/>
<text text-anchor="middle" x="446" y="-228.95" font-family="Times New Roman,serif" font-size="14.00">7</text>
</g>
<!-- 1&#45;&#45;7 -->
<g id="edge5" class="edge">
<title>1&#45;&#45;7</title>
<path fill="none" stroke="black" d="M473.65,-288.76C467.83,-277.46 460.11,-262.44 454.3,-251.15"/>
</g>
<!-- 9 -->
<g id="node7" class="node">
<title>9</title>
<ellipse fill="none" stroke="black" cx="391" cy="-162" rx="27" ry="18"/>
<text text-anchor="middle" x="391" y="-156.95" font-family="Times New Roman,serif" font-size="14.00">9</text>
</g>
<!-- 1&#45;&#45;9 -->
<g id="edge6" class="edge">
<title>1&#45;&#45;9</title>
<path fill="none" stroke="black" d="M460.35,-294.6C443.98,-285.6 422.29,-271.04 410,-252 395.86,-230.1 392.05,-199.46 391.14,-180.44"/>
</g>
<!-- 11 -->
<g id="node8" class="node">
<title>11</title>
<ellipse fill="none" stroke="black" cx="46" cy="-234" rx="27" ry="18"/>
<text text-anchor="middle" x="46" y="-228.95" font-family="Times New Roman,serif" font-size="14.00">11</text>
</g>
<!-- 1&#45;&#45;11 -->
<g id="edge7" class="edge">
<title>1&#45;&#45;11</title>
<path fill="none" stroke="black" d="M454.94,-302.75C392.18,-297.2 232.03,-281.16 101,-252 90.56,-249.68 79.24,-246.33 69.6,-243.21"/>
</g>
<!-- 13 -->
<g id="node9" class="node">
<title>13</title>
<ellipse fill="none" stroke="black" cx="137" cy="-234" rx="27" ry="18"/>
<text text-anchor="middle" x="137" y="-228.95" font-family="Times New Roman,serif" font-size="14.00">13</text>
</g>
<!-- 1&#45;&#45;13 -->
<g id="edge8" class="edge">
<title>1&#45;&#45;13</title>
<path fill="none" stroke="black" d="M456.16,-300.24C407.89,-291.28 300.8,-271.09 211,-252 194.75,-248.55 176.57,-244.37 162.3,-241.03"/>
</g>
<!-- 17 -->
<g id="node10" class="node">
<title>17</title>
<ellipse fill="none" stroke="black" cx="662" cy="-234" rx="27" ry="18"/>
<text text-anchor="middle" x="662" y="-228.95" font-family="Times New Roman,serif" font-size="14.00">17</text>
</g>
<!-- 1&#45;&#45;17 -->
<g id="edge9" class="edge">
<title>1&#45;&#45;17</title>
<path fill="none" stroke="black" d="M505.95,-296.91C534.73,-287.03 584.36,-269.46 626,-252 630.84,-249.97 635.99,-247.65 640.82,-245.38"/>
</g>
<!-- 19 -->
<g id="node11" class="node">
<title>19</title>
<ellipse fill="none" stroke="black" cx="734" cy="-234" rx="27" ry="18"/>
<text text-anchor="middle" x="734" y="-228.95" font-family="Times New Roman,serif" font-size="14.00">19</text>
</g>
<!-- 1&#45;&#45;19 -->
<g id="edge10" class="edge">
<title>1&#45;&#45;19</title>
<path fill="none" stroke="black" d="M508.09,-300.36C549.2,-292.65 631.22,-275.69 698,-252 702.95,-250.24 708.13,-248.03 712.98,-245.79"/>
</g>
<!-- 23 -->
<g id="node12" class="node">
<title>23</title>
<ellipse fill="none" stroke="black" cx="806" cy="-234" rx="27" ry="18"/>
<text text-anchor="middle" x="806" y="-228.95" font-family="Times New Roman,serif" font-size="14.00">23</text>
</g>
<!-- 1&#45;&#45;23 -->
<g id="edge11" class="edge">
<title>1&#45;&#45;23</title>
<path fill="none" stroke="black" d="M508.77,-302.42C560.34,-296.93 676.6,-282.08 770,-252 775.13,-250.35 780.48,-248.12 785.43,-245.83"/>
</g>
<!-- 25 -->
<g id="node13" class="node">
<title>25</title>
<ellipse fill="none" stroke="black" cx="844" cy="-162" rx="27" ry="18"/>
<text text-anchor="middle" x="844" y="-156.95" font-family="Times New Roman,serif" font-size="14.00">25</text>
</g>
<!-- 1&#45;&#45;25 -->
<g id="edge12" class="edge">
<title>1&#45;&#45;25</title>
<path fill="none" stroke="black" d="M509.25,-305.3C585.5,-305.5 798.24,-301.54 842,-252 859.29,-232.42 854.62,-199.91 849.46,-180.07"/>
</g>
<!-- 2&#45;&#45;4 -->
<g id="edge13" class="edge">
<title>2&#45;&#45;4</title>
<path fill="none" stroke="black" d="M247,-215.7C247,-204.85 247,-190.92 247,-180.1"/>
</g>
<!-- 6 -->
<g id="node14" class="node">
<title>6</title>
<ellipse fill="none" stroke="black" cx="463" cy="-162" rx="27" ry="18"/>
<text text-anchor="middle" x="463" y="-156.95" font-family="Times New Roman,serif" font-size="14.00">6</text>
</g>
<!-- 2&#45;&#45;6 -->
<g id="edge14" class="edge">
<title>2&#45;&#45;6</title>
<path fill="none" stroke="black" d="M272.15,-226.91C307.32,-218.1 372.96,-200.57 427,-180 431.91,-178.13 437.08,-175.87 441.92,-173.62"/>
</g>
<!-- 8 -->
<g id="node15" class="node">
<title>8</title>
<ellipse fill="none" stroke="black" cx="275" cy="-90" rx="27" ry="18"/>
<text text-anchor="middle" x="275" y="-84.95" font-family="Times New Roman,serif" font-size="14.00">8</text>
</g>
<!-- 2&#45;&#45;8 -->
<g id="edge15" class="edge">
<title>2&#45;&#45;8</title>
<path fill="none" stroke="black" d="M225.13,-223.01C208.82,-214.24 187.75,-199.78 178,-180 170.93,-165.65 169.84,-157.76 178,-144 193.37,-118.09 226.37,-104.02 249.6,-97.02"/>
</g>
<!-- 10 -->
<g id="node16" class="node">
<title>10</title>
<ellipse fill="none" stroke="black" cx="645" cy="-162" rx="27" ry="18"/>
<text text-anchor="middle" x="645" y="-156.95" font-family="Times New Roman,serif" font-size="14.00">10</text>
</g>
<!-- 2&#45;&#45;10 -->
<g id="edge16" class="edge">
<title>2&#45;&#45;10</title>
<path fill="none" stroke="black" d="M273.56,-229.24C329.02,-221.26 461.1,-201.59 571,-180 587.3,-176.8 605.48,-172.63 619.74,-169.22"/>
</g>
<!-- 14 -->
<g id="node17" class="node">
<title>14</title>
<ellipse fill="none" stroke="black" cx="319" cy="-162" rx="27" ry="18"/>
<text text-anchor="middle" x="319" y="-156.95" font-family="Times New Roman,serif" font-size="14.00">14</text>
</g>
<!-- 2&#45;&#45;14 -->
<g id="edge17" class="edge">
<title>2&#45;&#45;14</title>
<path fill="none" stroke="black" d="M261.92,-218.5C274.28,-206.48 291.75,-189.49 304.1,-177.49"/>
</g>
<!-- 18 -->
<g id="node18" class="node">
<title>18</title>
<ellipse fill="none" stroke="black" cx="383" cy="-90" rx="27" ry="18"/>
<text text-anchor="middle" x="383" y="-84.95" font-family="Times New Roman,serif" font-size="14.00">18</text>
</g>
<!-- 2&#45;&#45;18 -->
<g id="edge18" class="edge">
<title>2&#45;&#45;18</title>
<path fill="none" stroke="black" d="M232.7,-218.32C216.34,-199.69 193.87,-167.2 211,-144 219.91,-131.93 312.2,-108.15 357.8,-97.02"/>
</g>
<!-- 22 -->
<g id="node19" class="node">
<title>22</title>
<ellipse fill="none" stroke="black" cx="27" cy="-162" rx="27" ry="18"/>
<text text-anchor="middle" x="27" y="-156.95" font-family="Times New Roman,serif" font-size="14.00">22</text>
</g>
<!-- 2&#45;&#45;22 -->
<g id="edge19" class="edge">
<title>2&#45;&#45;22</title>
<path fill="none" stroke="black" d="M221.58,-227.06C185.69,-218.35 118.36,-200.89 63,-180 58.09,-178.15 52.92,-175.89 48.08,-173.64"/>
</g>
<!-- 26 -->
<g id="node20" class="node">
<title>26</title>
<ellipse fill="none" stroke="black" cx="99" cy="-162" rx="27" ry="18"/>
<text text-anchor="middle" x="99" y="-156.95" font-family="Times New Roman,serif" font-size="14.00">26</text>
</g>
<!-- 2&#45;&#45;26 -->
<g id="edge20" class="edge">
<title>2&#45;&#45;26</title>
<path fill="none" stroke="black" d="M225.48,-222.82C197.42,-209.55 148.62,-186.47 120.55,-173.19"/>
</g>
<!-- 3&#45;&#45;9 -->
<g id="edge22" class="edge">
<title>3&#45;&#45;9</title>
<path fill="none" stroke="black" d="M497.6,-221.75C473.9,-208.69 435.03,-187.27 411.35,-174.22"/>
</g>
<!-- 3&#45;&#45;6 -->
<g id="edge21" class="edge">
<title>3&#45;&#45;6</title>
<path fill="none" stroke="black" d="M505.79,-217.46C496.68,-205.86 484.28,-190.08 475.17,-178.49"/>
</g>
<!-- 12 -->
<g id="node21" class="node">
<title>12</title>
<ellipse fill="none" stroke="black" cx="493" cy="-90" rx="27" ry="18"/>
<text text-anchor="middle" x="493" y="-84.95" font-family="Times New Roman,serif" font-size="14.00">12</text>
</g>
<!-- 3&#45;&#45;12 -->
<g id="edge23" class="edge">
<title>3&#45;&#45;12</title>
<path fill="none" stroke="black" d="M536.49,-220.58C548.83,-211.1 564.03,-196.83 571,-180 577.12,-165.22 578.49,-158.14 571,-144 559.51,-122.3 534.7,-107.83 516.13,-99.57"/>
</g>
<!-- 15 -->
<g id="node22" class="node">
<title>15</title>
<ellipse fill="none" stroke="black" cx="717" cy="-162" rx="27" ry="18"/>
<text text-anchor="middle" x="717" y="-156.95" font-family="Times New Roman,serif" font-size="14.00">15</text>
</g>
<!-- 3&#45;&#45;15 -->
<g id="edge24" class="edge">
<title>3&#45;&#45;15</title>
<path fill="none" stroke="black" d="M539.07,-222.34C543.91,-220.09 549.08,-217.84 554,-216 608.93,-195.4 626.07,-200.6 681,-180 685.92,-178.16 691.09,-175.91 695.93,-173.66"/>
</g>
<!-- 21 -->
<g id="node23" class="node">
<title>21</title>
<ellipse fill="none" stroke="black" cx="535" cy="-162" rx="27" ry="18"/>
<text text-anchor="middle" x="535" y="-156.95" font-family="Times New Roman,serif" font-size="14.00">21</text>
</g>
<!-- 3&#45;&#45;21 -->
<g id="edge25" class="edge">
<title>3&#45;&#45;21</title>
<path fill="none" stroke="black" d="M522.12,-216.05C524.75,-205.21 528.16,-191.18 530.8,-180.28"/>
</g>
<!-- 4&#45;&#45;8 -->
<g id="edge26" class="edge">
<title>4&#45;&#45;8</title>
<path fill="none" stroke="black" d="M253.64,-144.41C258.1,-133.25 263.96,-118.6 268.41,-107.47"/>
</g>
<!-- 4&#45;&#45;12 -->
<g id="edge27" class="edge">
<title>4&#45;&#45;12</title>
<path fill="none" stroke="black" d="M268.03,-150.23C272.87,-147.99 278.06,-145.77 283,-144 317.25,-131.72 419.7,-107.73 467.68,-96.74"/>
</g>
<!-- 16 -->
<g id="node24" class="node">
<title>16</title>
<ellipse fill="none" stroke="black" cx="248" cy="-18" rx="27" ry="18"/>
<text text-anchor="middle" x="248" y="-12.95" font-family="Times New Roman,serif" font-size="14.00">16</text>
</g>
<!-- 4&#45;&#45;16 -->
<g id="edge28" class="edge">
<title>4&#45;&#45;16</title>
<path fill="none" stroke="black" d="M243.75,-143.89C241.95,-133.54 239.91,-120.06 239,-108 237.8,-92.04 237.66,-87.94 239,-72 240.02,-59.91 242.32,-46.43 244.35,-36.09"/>
</g>
<!-- 20 -->
<g id="node25" class="node">
<title>20</title>
<ellipse fill="none" stroke="black" cx="645" cy="-90" rx="27" ry="18"/>
<text text-anchor="middle" x="645" y="-84.95" font-family="Times New Roman,serif" font-size="14.00">20</text>
</g>
<!-- 4&#45;&#45;20 -->
<g id="edge29" class="edge">
<title>4&#45;&#45;20</title>
<path fill="none" stroke="black" d="M267.52,-150.03C272.48,-147.75 277.84,-145.56 283,-144 388.78,-112.06 419.67,-124.01 529,-108 559.81,-103.49 595.23,-98.3 618.74,-94.85"/>
</g>
<!-- 5&#45;&#45;25 -->
<g id="edge33" class="edge">
<title>5&#45;&#45;25</title>
<path fill="none" stroke="black" d="M611,-222.14C615.84,-219.9 621.03,-217.71 626,-216 694.93,-192.29 715.44,-198.26 786,-180 797.17,-177.11 809.45,-173.56 819.83,-170.46"/>
</g>
<!-- 5&#45;&#45;10 -->
<g id="edge30" class="edge">
<title>5&#45;&#45;10</title>
<path fill="none" stroke="black" d="M602.21,-217.46C611.32,-205.86 623.72,-190.08 632.83,-178.49"/>
</g>
<!-- 5&#45;&#45;15 -->
<g id="edge31" class="edge">
<title>5&#45;&#45;15</title>
<path fill="none" stroke="black" d="M610.4,-221.75C634.1,-208.69 672.97,-187.27 696.65,-174.22"/>
</g>
<!-- 5&#45;&#45;20 -->
<g id="edge32" class="edge">
<title>5&#45;&#45;20</title>
<path fill="none" stroke="black" d="M611.07,-222.34C615.91,-220.09 621.08,-217.84 626,-216 680.93,-195.4 717.62,-226.8 753,-180 762.65,-167.24 761.46,-157.58 753,-144 735.1,-115.28 696.61,-101.69 670.75,-95.57"/>
</g>
<!-- 7&#45;&#45;14 -->
<g id="edge37" class="edge">
<title>7&#45;&#45;14</title>
<path fill="none" stroke="black" d="M425.6,-221.75C401.9,-208.69 363.03,-187.27 339.35,-174.22"/>
</g>
<!-- 7&#45;&#45;21 -->
<g id="edge38" class="edge">
<title>7&#45;&#45;21</title>
<path fill="none" stroke="black" d="M462.74,-219.83C478.55,-207.4 502.15,-188.84 518.03,-176.35"/>
</g>
<!-- 9&#45;&#45;18 -->
<g id="edge41" class="edge">
<title>9&#45;&#45;18</title>
<path fill="none" stroke="black" d="M389.02,-143.7C387.78,-132.85 386.19,-118.92 384.95,-108.1"/>
</g>
<!-- 11&#45;&#45;22 -->
<g id="edge43" class="edge">
<title>11&#45;&#45;22</title>
<path fill="none" stroke="black" d="M41.4,-216.05C38.41,-205.05 34.54,-190.76 31.56,-179.79"/>
</g>
<!-- 13&#45;&#45;26 -->
<g id="edge45" class="edge">
<title>13&#45;&#45;26</title>
<path fill="none" stroke="black" d="M128.19,-216.76C122.05,-205.46 113.89,-190.44 107.77,-179.15"/>
</g>
<!-- 6&#45;&#45;18 -->
<g id="edge35" class="edge">
<title>6&#45;&#45;18</title>
<path fill="none" stroke="black" d="M447.19,-147.17C433.17,-134.9 412.79,-117.06 398.77,-104.8"/>
</g>
<!-- 6&#45;&#45;12 -->
<g id="edge34" class="edge">
<title>6&#45;&#45;12</title>
<path fill="none" stroke="black" d="M470.11,-144.41C474.89,-133.25 481.17,-118.6 485.94,-107.47"/>
</g>
<!-- 24 -->
<g id="node26" class="node">
<title>24</title>
<ellipse fill="none" stroke="black" cx="438" cy="-18" rx="27" ry="18"/>
<text text-anchor="middle" x="438" y="-12.95" font-family="Times New Roman,serif" font-size="14.00">24</text>
</g>
<!-- 6&#45;&#45;24 -->
<g id="edge36" class="edge">
<title>6&#45;&#45;24</title>
<path fill="none" stroke="black" d="M459.98,-143.87C455.18,-116.58 445.84,-63.52 441.03,-36.19"/>
</g>
<!-- 8&#45;&#45;16 -->
<g id="edge39" class="edge">
<title>8&#45;&#45;16</title>
<path fill="none" stroke="black" d="M268.46,-72.05C264.22,-61.05 258.71,-46.76 254.48,-35.79"/>
</g>
<!-- 8&#45;&#45;24 -->
<g id="edge40" class="edge">
<title>8&#45;&#45;24</title>
<path fill="none" stroke="black" d="M297.32,-79.41C328.45,-66.05 384.56,-41.95 415.69,-28.58"/>
</g>
<!-- 10&#45;&#45;20 -->
<g id="edge42" class="edge">
<title>10&#45;&#45;20</title>
<path fill="none" stroke="black" d="M645,-143.7C645,-132.85 645,-118.92 645,-108.1"/>
</g>
<!-- 12&#45;&#45;24 -->
<g id="edge44" class="edge">
<title>12&#45;&#45;24</title>
<path fill="none" stroke="black" d="M480.79,-73.46C471.68,-61.86 459.28,-46.08 450.17,-34.49"/>
</g>
</g>
</svg>
